<svg xmlns="http://www.w3.org/2000/svg" xmlns:xlink="http://www.w3.org/1999/xlink" width="1080" zoomAndPan="magnify" viewBox="0 0 810 809.999993" height="1080" preserveAspectRatio="xMidYMid meet" version="1.0"><defs><clipPath id="22117d519d"><path d="M 81 536 L 272 536 L 272 727.5 L 81 727.5 Z M 81 536 " clip-rule="nonzero"/></clipPath><clipPath id="7d60aae475"><path d="M 368 703 L 441 703 L 441 727.5 L 368 727.5 Z M 368 703 " clip-rule="nonzero"/></clipPath><clipPath id="5a6e9a970c"><path d="M 296 654 L 369 654 L 369 727.5 L 296 727.5 Z M 296 654 " clip-rule="nonzero"/></clipPath><clipPath id="ce43c9cbf3"><path d="M 440 633 L 537 633 L 537 727.5 L 440 727.5 Z M 440 633 " clip-rule="nonzero"/></clipPath><clipPath id="d7b70f494b"><path d="M 607 679 L 656 679 L 656 727.5 L 607 727.5 Z M 607 679 " clip-rule="nonzero"/></clipPath><clipPath id="580714846d"><path d="M 703.171875 655 L 728 655 L 728 679.660156 L 703.171875 679.660156 Z M 703.171875 655 " clip-rule="nonzero"/></clipPath><clipPath id="d6c5e1cae9"><path d="M 704.464844 295.636719 L 728.675781 295.636719 L 728.675781 320 L 704.464844 320 Z M 704.464844 295.636719 " clip-rule="nonzero"/></clipPath></defs><path fill="#000000" d="M 223.75 129.253906 L 129.609375 129.253906 L 129.609375 223.417969 L 223.75 223.417969 L 223.75 129.253906 " fill-opacity="1" fill-rule="nonzero"/><path fill="#000000" d="M 247.875 247.542969 L 105.484375 247.542969 L 105.484375 105.128906 L 247.875 105.128906 Z M 271.996094 81 L 81.363281 81 L 81.363281 271.671875 L 271.996094 271.671875 L 271.996094 81 " fill-opacity="1" fill-rule="nonzero"/><path fill="#000000" d="M 679.367188 129.253906 L 585.21875 129.253906 L 585.21875 223.417969 L 679.367188 223.417969 L 679.367188 129.253906 " fill-opacity="1" fill-rule="nonzero"/><path fill="#000000" d="M 703.484375 247.542969 L 561.101562 247.542969 L 561.101562 105.128906 L 703.484375 105.128906 Z M 727.605469 81 L 536.972656 81 L 536.972656 271.671875 L 727.605469 271.671875 L 727.605469 81 " fill-opacity="1" fill-rule="nonzero"/><path fill="#000000" d="M 129.609375 679.125 L 223.753906 679.125 L 223.753906 584.957031 L 129.609375 584.957031 L 129.609375 679.125 " fill-opacity="1" fill-rule="nonzero"/><g clip-path="url(#22117d519d)"><path fill="#000000" d="M 105.484375 560.835938 L 247.875 560.835938 L 247.875 703.246094 L 105.484375 703.246094 Z M 81.363281 727.375 L 271.996094 727.375 L 271.996094 536.703125 L 81.363281 536.703125 L 81.363281 727.375 " fill-opacity="1" fill-rule="nonzero"/></g><path fill="#000000" d="M 368.632812 153.292969 L 368.632812 175.15625 L 392.761719 175.15625 L 392.761719 153.292969 L 416.503906 153.292969 L 416.503906 201.507812 L 392.449219 201.507812 L 392.449219 201.550781 L 368.371094 201.550781 L 368.371094 223.417969 L 344.292969 223.417969 L 344.292969 175.15625 L 320.171875 175.15625 L 320.171875 153.292969 Z M 440.582031 247.542969 L 392.449219 247.542969 L 392.449219 225.632812 L 416.527344 225.632812 L 416.527344 201.550781 L 440.582031 201.550781 Z M 296.046875 319.933594 L 223.75 319.933594 L 223.75 344.066406 L 296.058594 344.066406 L 296.058594 368.1875 L 320.136719 368.1875 L 320.136719 440.382812 L 344.257812 440.382812 L 344.257812 344.066406 L 392.449219 344.066406 L 392.449219 319.933594 L 320.171875 319.933594 L 320.171875 223.417969 L 344.292969 223.417969 L 344.292969 247.542969 L 368.371094 247.542969 L 368.371094 271.671875 L 344.292969 271.671875 L 344.292969 319.933594 L 368.371094 319.933594 L 368.371094 271.671875 L 392.449219 271.671875 L 392.449219 271.625 L 440.582031 271.625 L 440.582031 319.976562 L 416.527344 319.976562 L 416.527344 344.058594 L 465.140625 344.058594 L 465.140625 390.046875 L 489.21875 390.046875 L 489.21875 319.933594 L 465.140625 319.933594 L 465.140625 319.976562 L 464.707031 319.976562 L 464.707031 177.425781 L 488.808594 177.425781 L 488.808594 201.507812 L 512.9375 201.507812 L 512.9375 153.34375 L 510.824219 153.34375 L 510.824219 153.292969 L 464.707031 153.292969 L 464.707031 129.261719 L 320.171875 129.261719 L 320.171875 105.128906 L 440.597656 105.128906 L 440.597656 81 L 296.140625 81 L 296.140625 105.121094 L 296.046875 105.121094 L 296.046875 319.933594 " fill-opacity="1" fill-rule="nonzero"/><path fill="#000000" d="M 512.910156 129.253906 L 512.910156 81 L 488.832031 81 L 488.832031 105.179688 L 464.707031 105.179688 L 464.707031 129.253906 L 512.910156 129.253906 " fill-opacity="1" fill-rule="nonzero"/><path fill="#000000" d="M 105.484375 368.191406 L 81.363281 368.191406 L 81.363281 392.324219 L 105.484375 392.324219 L 105.484375 440.382812 L 175.550781 440.382812 L 175.550781 464.511719 L 105.484375 464.511719 L 105.484375 488.644531 L 177.808594 488.644531 L 177.808594 512.777344 L 247.875 512.777344 L 247.875 488.644531 L 199.628906 488.644531 L 199.628906 416.25 L 129.5625 416.25 L 129.5625 392.324219 L 199.628906 392.324219 L 199.628906 368.191406 L 223.75 368.191406 L 223.75 344.066406 L 105.484375 344.066406 L 105.484375 368.191406 " fill-opacity="1" fill-rule="nonzero"/><path fill="#000000" d="M 105.4375 319.933594 L 81.363281 319.933594 L 81.363281 344.066406 L 105.4375 344.066406 L 105.4375 319.933594 " fill-opacity="1" fill-rule="nonzero"/><path fill="#000000" d="M 271.996094 488.644531 L 296.074219 488.644531 L 296.074219 440.382812 L 247.917969 440.382812 L 247.917969 464.511719 L 271.996094 464.511719 L 271.996094 488.644531 " fill-opacity="1" fill-rule="nonzero"/><path fill="#000000" d="M 105.484375 295.804688 L 105.484375 319.933594 L 129.5625 319.933594 L 129.5625 295.804688 L 105.484375 295.804688 " fill-opacity="1" fill-rule="nonzero"/><path fill="#000000" d="M 199.628906 295.804688 L 199.628906 319.933594 L 223.703125 319.933594 L 223.703125 295.804688 L 199.628906 295.804688 " fill-opacity="1" fill-rule="nonzero"/><path fill="#000000" d="M 416.527344 295.804688 L 392.449219 295.804688 L 392.449219 319.933594 L 416.527344 319.933594 L 416.527344 295.804688 " fill-opacity="1" fill-rule="nonzero"/><path fill="#000000" d="M 465.140625 390.046875 L 441.011719 390.046875 L 441.011719 488.644531 L 465.140625 488.644531 L 465.140625 390.046875 " fill-opacity="1" fill-rule="nonzero"/><path fill="#000000" d="M 368.335938 464.511719 L 368.335938 440.496094 L 392.347656 440.496094 L 392.347656 416.363281 L 368.273438 416.363281 L 368.273438 440.382812 L 344.257812 440.382812 L 344.257812 464.511719 L 368.335938 464.511719 " fill-opacity="1" fill-rule="nonzero"/><path fill="#000000" d="M 368.34375 368.167969 L 368.34375 392.292969 L 392.421875 392.292969 L 392.421875 416.425781 L 416.5 416.425781 L 416.5 368.167969 L 368.34375 368.167969 " fill-opacity="1" fill-rule="nonzero"/><path fill="#000000" d="M 296.074219 392.335938 L 247.910156 392.335938 L 247.910156 368.203125 L 223.832031 368.203125 L 223.832031 416.460938 L 296.074219 416.460938 L 296.074219 392.335938 " fill-opacity="1" fill-rule="nonzero"/><path fill="#000000" d="M 223.703125 464.511719 L 223.703125 440.382812 L 199.628906 440.382812 L 199.628906 464.511719 L 223.703125 464.511719 " fill-opacity="1" fill-rule="nonzero"/><path fill="#000000" d="M 583.355469 414.179688 L 583.355469 438.3125 L 607.433594 438.3125 L 607.433594 414.179688 L 631.507812 414.179688 L 631.507812 390.046875 L 607.433594 390.046875 L 607.433594 365.917969 L 583.355469 365.917969 L 583.355469 390.046875 L 607.433594 390.046875 L 607.433594 414.179688 L 583.355469 414.179688 " fill-opacity="1" fill-rule="nonzero"/><path fill="#000000" d="M 513.085938 584.976562 L 488.960938 584.976562 L 488.960938 633.136719 L 491.074219 633.136719 L 491.074219 633.1875 L 537.191406 633.1875 L 537.191406 609.058594 L 513.085938 609.058594 L 513.085938 584.976562 " fill-opacity="1" fill-rule="nonzero"/><path fill="#000000" d="M 489.253906 488.644531 L 465.175781 488.644531 L 465.175781 512.777344 L 489.253906 512.777344 L 489.253906 536.902344 L 513.328125 536.902344 L 513.328125 488.644531 L 489.253906 488.644531 " fill-opacity="1" fill-rule="nonzero"/><path fill="#000000" d="M 416.496094 609.070312 L 392.417969 609.070312 L 392.417969 633.203125 L 440.574219 633.203125 L 440.574219 631.085938 L 440.617188 631.085938 L 440.617188 584.960938 L 416.496094 584.960938 L 416.496094 609.070312 " fill-opacity="1" fill-rule="nonzero"/><g clip-path="url(#7d60aae475)"><path fill="#000000" d="M 368.371094 727.46875 L 440.6875 727.46875 L 440.6875 703.34375 L 368.371094 703.34375 L 368.371094 727.46875 " fill-opacity="1" fill-rule="nonzero"/></g><g clip-path="url(#5a6e9a970c)"><path fill="#000000" d="M 344.257812 679.125 L 344.257812 679.21875 L 320.128906 679.21875 L 320.128906 703.328125 L 296.054688 703.328125 L 296.054688 727.460938 L 344.207031 727.460938 L 344.207031 725.347656 L 344.257812 725.347656 L 344.257812 703.25 L 368.335938 703.25 L 368.335938 654.992188 L 344.257812 654.992188 L 344.257812 679.125 " fill-opacity="1" fill-rule="nonzero"/></g><path fill="#000000" d="M 296.054688 655.09375 L 296.054688 679.21875 L 320.128906 679.21875 L 320.128906 655.09375 L 296.054688 655.09375 " fill-opacity="1" fill-rule="nonzero"/><path fill="#000000" d="M 489.253906 271.652344 L 513.328125 271.652344 L 513.328125 225.632812 L 489.253906 225.632812 L 489.253906 271.652344 " fill-opacity="1" fill-rule="nonzero"/><path fill="#000000" d="M 416.445312 440.464844 L 392.367188 440.464844 L 392.367188 464.589844 L 416.445312 464.589844 L 416.445312 440.464844 " fill-opacity="1" fill-rule="nonzero"/><path fill="#000000" d="M 727.636719 582.890625 L 703.515625 582.890625 L 703.515625 558.964844 L 703.507812 558.964844 L 703.507812 534.832031 L 633.449219 534.832031 L 633.449219 510.699219 L 703.507812 510.699219 L 703.507812 486.574219 L 631.605469 486.574219 L 631.605469 462.441406 L 655.683594 462.441406 L 655.683594 438.3125 L 631.605469 438.3125 L 631.605469 462.441406 L 583.355469 462.441406 L 583.355469 390.046875 L 559.980469 390.046875 L 559.980469 368.1875 L 535.90625 368.1875 L 535.90625 390.046875 L 489.21875 390.046875 L 489.21875 414.179688 L 559.28125 414.179688 L 559.28125 438.3125 L 489.21875 438.3125 L 489.21875 462.441406 L 513.328125 462.441406 L 513.328125 488.644531 L 537.40625 488.644531 L 537.40625 462.441406 L 561.539062 462.441406 L 561.539062 486.574219 L 609.371094 486.574219 L 609.371094 558.964844 L 679.4375 558.964844 L 679.4375 582.890625 L 609.371094 582.890625 L 609.371094 607.019531 L 561.125 607.019531 L 561.125 631.152344 L 679.390625 631.152344 L 679.390625 607.019531 L 727.636719 607.019531 L 727.636719 582.890625 " fill-opacity="1" fill-rule="nonzero"/><g clip-path="url(#ce43c9cbf3)"><path fill="#000000" d="M 488.890625 703.175781 L 464.90625 703.175781 L 464.90625 681.410156 L 466.886719 681.410156 L 466.886719 681.460938 L 512.578125 681.460938 L 512.578125 703.175781 Z M 513 657.328125 L 488.902344 657.328125 L 488.902344 633.246094 L 464.90625 633.246094 L 464.90625 633.226562 L 440.832031 633.226562 L 440.832031 657.355469 L 464.777344 657.355469 L 464.777344 679.117188 L 440.832031 679.117188 L 440.832031 703.246094 L 464.882812 703.246094 L 464.882812 727.304688 L 512.964844 727.304688 L 512.964844 703.613281 L 536.65625 703.613281 L 536.65625 679.480469 L 513 679.480469 L 513 657.328125 " fill-opacity="1" fill-rule="nonzero"/></g><path fill="#000000" d="M 416.566406 679.195312 L 416.566406 655.0625 L 392.488281 655.0625 L 392.488281 679.195312 L 416.566406 679.195312 " fill-opacity="1" fill-rule="nonzero"/><g clip-path="url(#d7b70f494b)"><path fill="#000000" d="M 631.507812 703.328125 L 607.433594 703.328125 L 607.433594 727.460938 L 655.585938 727.460938 L 655.585938 725.347656 L 655.636719 725.347656 L 655.636719 679.21875 L 631.507812 679.21875 L 631.507812 703.328125 " fill-opacity="1" fill-rule="nonzero"/></g><g clip-path="url(#580714846d)"><path fill="#000000" d="M 703.867188 679.195312 L 727.945312 679.195312 L 727.945312 655.0625 L 703.867188 655.0625 L 703.867188 679.195312 " fill-opacity="1" fill-rule="nonzero"/></g><path fill="#000000" d="M 561.125 679.195312 L 585.25 679.195312 L 585.25 655.0625 L 561.125 655.0625 L 561.125 679.195312 " fill-opacity="1" fill-rule="nonzero"/><path fill="#000000" d="M 704.601562 319.90625 L 656.371094 319.90625 L 656.371094 295.804688 L 632.292969 295.804688 L 632.292969 319.90625 L 585.984375 319.90625 L 585.984375 295.804688 L 561.910156 295.804688 L 561.910156 295.824219 L 489.21875 295.824219 L 489.21875 319.90625 L 535.90625 319.90625 L 535.90625 344.039062 L 655.683594 344.039062 L 655.683594 365.917969 L 679.753906 365.917969 L 679.753906 344.039062 L 704.601562 344.039062 L 704.601562 319.90625 " fill-opacity="1" fill-rule="nonzero"/><g clip-path="url(#d6c5e1cae9)"><path fill="#000000" d="M 704.601562 295.804688 L 704.601562 319.933594 L 728.675781 319.933594 L 728.675781 295.804688 L 704.601562 295.804688 " fill-opacity="1" fill-rule="nonzero"/></g><path fill="#000000" d="M 655.683594 462.441406 L 679.753906 462.441406 L 679.753906 438.3125 L 703.832031 438.3125 L 703.832031 414.179688 L 679.753906 414.179688 L 679.753906 438.3125 L 655.683594 438.3125 L 655.683594 462.441406 " fill-opacity="1" fill-rule="nonzero"/><path fill="#000000" d="M 679.753906 390.046875 L 655.683594 390.046875 L 655.683594 414.179688 L 679.753906 414.179688 L 679.753906 390.046875 " fill-opacity="1" fill-rule="nonzero"/><path fill="#000000" d="M 511.828125 344.058594 L 511.828125 368.1875 L 535.90625 368.1875 L 535.90625 344.058594 L 511.828125 344.058594 " fill-opacity="1" fill-rule="nonzero"/><path fill="#000000" d="M 585.25 536.902344 L 585.25 512.820312 L 537 512.820312 L 537 560.835938 L 489.183594 560.835938 L 489.183594 536.902344 L 465.105469 536.902344 L 465.105469 560.835938 L 440.617188 560.835938 L 440.617188 512.777344 L 416.496094 512.777344 L 416.496094 536.902344 L 368.335938 536.902344 L 368.335938 512.777344 L 392.417969 512.777344 L 392.417969 488.644531 L 344.253906 488.644531 L 344.253906 464.511719 L 320.175781 464.511719 L 320.175781 512.777344 L 344.257812 512.777344 L 344.257812 536.902344 L 296.160156 536.902344 L 296.160156 561.035156 L 320.160156 561.035156 L 320.160156 584.960938 L 344.238281 584.960938 L 344.238281 561.035156 L 368.273438 561.035156 L 368.273438 609.09375 L 320.15625 609.09375 L 320.15625 584.960938 L 296.078125 584.960938 L 296.078125 633.226562 L 368.320312 633.226562 L 368.320312 609.09375 L 392.347656 609.09375 L 392.347656 561.035156 L 440.617188 561.035156 L 440.617188 584.960938 L 537.160156 584.960938 L 537.160156 560.984375 L 561.125 560.984375 L 561.125 584.960938 L 585.25 584.960938 L 585.25 560.835938 L 561.125 560.835938 L 561.125 536.902344 L 585.25 536.902344 " fill-opacity="1" fill-rule="nonzero"/></svg>