<svg xmlns="http://www.w3.org/2000/svg" xmlns:xlink="http://www.w3.org/1999/xlink" width="1920" zoomAndPan="magnify" viewBox="0 0 1440 809.999993" height="1080" preserveAspectRatio="xMidYMid meet" version="1.0"><defs><clipPath id="823a866a54"><path d="M 1068.875 321.898438 L 1440 321.898438 L 1440 810 L 1068.875 810 Z M 1068.875 321.898438 " clip-rule="nonzero"/></clipPath><clipPath id="e91cb75215"><path d="M 1133 321.898438 L 1440 321.898438 L 1440 810 L 1133 810 Z M 1133 321.898438 " clip-rule="nonzero"/></clipPath><clipPath id="88eca85c42"><path d="M 1197 321.898438 L 1440 321.898438 L 1440 810 L 1197 810 Z M 1197 321.898438 " clip-rule="nonzero"/></clipPath><clipPath id="129097ec89"><path d="M 1262 321.898438 L 1440 321.898438 L 1440 810 L 1262 810 Z M 1262 321.898438 " clip-rule="nonzero"/></clipPath><clipPath id="775e1cece5"><path d="M 1326 321.898438 L 1440 321.898438 L 1440 810 L 1326 810 Z M 1326 321.898438 " clip-rule="nonzero"/></clipPath><clipPath id="edd6b9a23e"><path d="M 1391 321.898438 L 1440 321.898438 L 1440 810 L 1391 810 Z M 1391 321.898438 " clip-rule="nonzero"/></clipPath></defs><rect x="-144" width="1728" fill="#ffffff" y="-80.999999" height="971.999992" fill-opacity="1"/><rect x="-144" width="1728" fill="#14161a" y="-80.999999" height="971.999992" fill-opacity="1"/><path fill="#2c323d" d="M 4.03125 195.003906 C 124.816406 228.753906 258.121094 271.382812 335.132812 377.457031 C 381.636719 441.484375 395.449219 519.09375 408.519531 595.414062 C 422.078125 675.152344 439.226562 754.199219 463.09375 831.550781 C 508.21875 977.4375 576.609375 1118.789062 680.503906 1232.21875 C 772.851562 1333.007812 895.300781 1413.578125 1032.917969 1432.480469 C 1165.046875 1450.632812 1303.523438 1410.621094 1401.816406 1319.539062 C 1414.15625 1308.085938 1425.78125 1295.945312 1436.683594 1283.117188 C 1439.699219 1279.613281 1434.589844 1274.5 1431.574219 1278.003906 C 1342.875 1381.953125 1207.328125 1436.300781 1071.40625 1428.945312 C 931.78125 1421.421875 804.503906 1347.714844 707.621094 1250.054688 C 599.359375 1141.105469 526.976562 1001.996094 479.007812 857.316406 C 454.0625 780.886719 434.675781 703.074219 420.84375 623.878906 C 407.113281 547.445312 398.09375 467.679688 358.195312 399.375 C 293.023438 287.984375 168.074219 236.109375 49.789062 200.664062 C 35.226562 196.296875 20.605469 192.046875 5.957031 188.054688 C 5.511719 187.96875 5.066406 187.96875 4.621094 188.054688 C 4.175781 188.136719 3.757812 188.300781 3.375 188.539062 C 2.988281 188.78125 2.660156 189.082031 2.390625 189.445312 C 2.117188 189.808594 1.921875 190.207031 1.800781 190.644531 C 1.679688 191.082031 1.644531 191.527344 1.6875 191.976562 C 1.734375 192.429688 1.859375 192.855469 2.066406 193.261719 C 2.273438 193.664062 2.546875 194.015625 2.886719 194.316406 C 3.226562 194.617188 3.609375 194.847656 4.03125 195.003906 Z M 4.03125 195.003906 " fill-opacity="1" fill-rule="nonzero"/><path fill="#2c323d" d="M 4.0625 171.335938 C 122.402344 202.414062 254.53125 240.734375 333.667969 340.808594 C 381.175781 400.953125 395.566406 475.605469 408.863281 549.167969 C 422.679688 625.542969 440.460938 701.117188 464.90625 774.820312 C 511.351562 914.273438 582.011719 1047.695312 686.449219 1152.625 C 780.722656 1247.414062 902.796875 1319.222656 1037.109375 1335.679688 C 1166.078125 1351.394531 1302.199219 1315.257812 1400.980469 1229.605469 C 1413.578125 1218.671875 1425.46875 1207.019531 1436.65625 1194.648438 C 1439.671875 1191.34375 1434.730469 1186.375 1431.714844 1189.707031 C 1341.984375 1288.601562 1207.816406 1337.460938 1075.542969 1331.832031 C 938.757812 1326.085938 811.484375 1260.023438 712.5625 1168.105469 C 604.472656 1067.574219 529.992188 937.054688 480.703125 799.121094 C 454.996094 725.96875 435.042969 651.277344 420.84375 575.046875 C 406.855469 501.890625 397.460938 425.484375 356.730469 361.230469 C 289.605469 255.382812 164.28125 208.734375 49.128906 176.277344 C 34.765625 172.257812 20.40625 168.40625 6.042969 164.617188 C 5.597656 164.484375 5.144531 164.441406 4.683594 164.492188 C 4.21875 164.542969 3.785156 164.675781 3.378906 164.898438 C 2.96875 165.121094 2.617188 165.414062 2.328125 165.773438 C 2.035156 166.136719 1.824219 166.539062 1.691406 166.984375 C 1.5625 167.429688 1.519531 167.882812 1.570312 168.347656 C 1.617188 168.808594 1.753906 169.242188 1.976562 169.652344 C 2.199219 170.058594 2.488281 170.410156 2.851562 170.703125 C 3.210938 170.992188 3.617188 171.207031 4.0625 171.335938 Z M 4.0625 171.335938 " fill-opacity="1" fill-rule="nonzero"/><path fill="#2c323d" d="M 4.089844 147.667969 C 65.558594 162.804688 127.171875 179.265625 185.507812 204.109375 C 240.574219 227.636719 293.539062 259.347656 332.746094 305.277344 C 343.515625 318.023438 353.046875 331.636719 361.339844 346.117188 C 369.632812 360.597656 376.550781 375.707031 382.09375 391.445312 C 395.019531 427.550781 402 465.410156 409.265625 502.953125 C 423.3125 575.566406 441.410156 647.316406 466.484375 716.972656 C 514.222656 849.675781 586.867188 974.652344 691.046875 1071.078125 C 787.671875 1160.523438 910.378906 1225.324219 1042.597656 1238.96875 C 1168.980469 1251.980469 1302.546875 1219.265625 1401.640625 1138.292969 C 1413.898438 1128.347656 1425.542969 1117.730469 1436.570312 1106.4375 C 1439.585938 1103.335938 1434.816406 1098.566406 1431.800781 1101.667969 C 1341.09375 1195.28125 1208.476562 1239.027344 1079.679688 1234.945312 C 945.683594 1230.667969 818.636719 1172.15625 717.757812 1085.984375 C 609.472656 993.554688 532.464844 870.730469 481.707031 738.6875 C 455.859375 670.316406 435.75 600.300781 421.386719 528.632812 C 407.027344 458.316406 397.375 384.753906 355.753906 324.148438 C 286.847656 223.929688 162.328125 182.109375 50.308594 152.4375 C 35.503906 148.570312 20.703125 144.863281 5.898438 141.320312 C 1.675781 140.285156 -0.101562 146.777344 4.089844 147.8125 Z M 4.089844 147.667969 " fill-opacity="1" fill-rule="nonzero"/><path fill="#2c323d" d="M 4.121094 124.085938 C 64.667969 137.875 124.988281 152.808594 182.78125 175.53125 C 237.011719 196.871094 290.292969 225.597656 330.621094 268.566406 C 341.628906 280.3125 351.414062 293.003906 359.980469 306.632812 C 368.546875 320.261719 375.738281 334.582031 381.546875 349.597656 C 394.761719 383.402344 401.914062 419.136719 409.238281 454.550781 C 423.601562 523.691406 442.070312 591.851562 467.691406 657.742188 C 517.183594 784.875 592.695312 902.238281 697.652344 990.652344 C 796.320312 1073.777344 918.683594 1130.96875 1048.082031 1142.167969 C 1172.140625 1152.882812 1304.183594 1123.125 1403.710938 1046.203125 C 1415.15625 1037.355469 1426.089844 1027.914062 1436.511719 1017.882812 C 1439.527344 1015.007812 1434.933594 1010.386719 1431.917969 1013.285156 C 1340.203125 1101.554688 1209.136719 1140.472656 1083.640625 1137.632812 C 952.488281 1134.757812 826.078125 1083.199219 723.246094 1003.089844 C 615.214844 918.929688 535.679688 804.578125 483.203125 678.882812 C 456.296875 613.5 435.453125 546.242188 420.671875 477.101562 C 406.050781 410.460938 395.652344 341.296875 353.3125 285.425781 C 319.503906 240.789062 272.082031 208.90625 221.84375 185.296875 C 166.867188 159.445312 108.070312 142.5 49.214844 128.023438 C 34.796875 124.460938 20.339844 121.042969 5.84375 117.765625 C 1.792969 116.820312 0.0976562 123.082031 4.121094 124 Z M 4.121094 124.085938 " fill-opacity="1" fill-rule="nonzero"/><path fill="#2c323d" d="M 4.175781 100.332031 C 63.835938 113.027344 123.582031 126.785156 181.058594 147.496094 C 234.914062 166.914062 288.425781 193.023438 329.761719 233.4375 C 340.519531 243.910156 350.179688 255.320312 358.738281 267.660156 C 367.296875 280 374.59375 293.046875 380.628906 306.796875 C 394.761719 339.167969 402.113281 373.953125 409.785156 408.277344 C 423.933594 473.71875 443.855469 537.351562 469.558594 599.175781 C 520.714844 719.816406 598.816406 828.132812 703.082031 908.273438 C 803.785156 985.796875 926.378906 1036.234375 1053.742188 1045.199219 C 1174.378906 1053.816406 1303.636719 1027.445312 1402.992188 956.15625 C 1414.59375 947.824219 1425.726562 938.910156 1436.398438 929.414062 C 1439.269531 926.710938 1434.960938 922.316406 1431.972656 924.988281 C 1340 1007.28125 1211.578125 1041.75 1090.105469 1040.371094 C 961.308594 1038.992188 835.640625 994.414062 730.65625 920.738281 C 622.828125 845.078125 540.503906 739.777344 485.757812 620.460938 C 457.828125 558.847656 436.1875 495.101562 420.84375 429.21875 C 405.847656 366.027344 394.992188 301.226562 352.824219 249.464844 C 318.183594 206.984375 269.871094 177.65625 220.035156 156.257812 C 165.203125 132.703125 107.292969 117.105469 49.214844 103.980469 C 34.757812 100.609375 20.289062 97.390625 5.8125 94.328125 C 1.90625 93.496094 0.242188 99.5 4.175781 100.332031 Z M 4.175781 100.332031 " fill-opacity="1" fill-rule="nonzero"/><path fill="#2c323d" d="M 4.347656 76.664062 C 63.632812 88.296875 122.976562 100.847656 180.425781 119.894531 C 233.335938 137.472656 286.703125 160.851562 328.925781 198.421875 C 339.425781 207.6875 348.933594 217.878906 357.449219 228.992188 C 365.960938 240.109375 373.328125 251.9375 379.539062 264.488281 C 394.589844 295.25 402.230469 328.859375 410.273438 361.949219 C 424.875 423.992188 445.5 483.96875 472.144531 541.871094 C 525.453125 655.617188 606.253906 754.628906 709.859375 826.238281 C 812.605469 897.242188 934.738281 941.132812 1059.742188 948.167969 C 1177.941406 954.804688 1304.414062 931.308594 1404.140625 865.015625 C 1415.3125 857.582031 1426.074219 849.597656 1436.425781 841.058594 C 1439.300781 838.617188 1435.132812 834.421875 1432.175781 836.835938 C 1339.167969 913.386719 1212.898438 943.601562 1094.382812 943.113281 C 968.230469 942.710938 843.65625 904.25 737.207031 837.039062 C 630.09375 769.394531 544.929688 673.3125 487.855469 560.371094 C 459.234375 503.03125 437.042969 443.304688 421.273438 381.191406 C 413.085938 349.738281 406.910156 317.683594 395.59375 287.121094 C 390.6875 273.28125 384.5 260.042969 377.03125 247.402344 C 369.558594 234.761719 360.945312 222.953125 351.1875 211.980469 C 315.683594 172.917969 267.917969 147.066406 219.433594 127.761719 C 164.570312 105.90625 106.894531 91.828125 49.214844 79.679688 C 34.757812 76.730469 20.28125 73.800781 5.785156 70.890625 C 2.023438 70.144531 0.414062 75.917969 4.207031 76.636719 Z M 4.347656 76.664062 " fill-opacity="1" fill-rule="nonzero"/><path fill="#2c323d" d="M 4.347656 52.996094 C 63.261719 63.566406 122.117188 74.96875 179.5625 92.289062 C 231.265625 107.945312 283.746094 128.421875 326.457031 162.347656 C 337.242188 170.734375 347.074219 180.121094 355.957031 190.503906 C 364.835938 200.886719 372.582031 212.058594 379.191406 224.015625 C 394.300781 251.992188 402.171875 282.929688 410.242188 313.460938 C 425.304688 372.011719 446.550781 428.222656 473.980469 482.097656 C 480.898438 495.425781 488.253906 508.507812 496.050781 521.339844 C 503.847656 534.171875 512.066406 546.726562 520.710938 559.003906 C 529.355469 571.285156 538.402344 583.257812 547.851562 594.925781 C 557.304688 606.59375 567.136719 617.929688 577.351562 628.933594 C 587.566406 639.941406 598.140625 650.589844 609.074219 660.882812 C 620.007812 671.175781 631.273438 681.085938 642.875 690.621094 C 654.476562 700.152344 666.386719 709.285156 678.601562 718.011719 C 690.820312 726.742188 703.316406 735.050781 716.09375 742.9375 C 729.085938 750.964844 742.316406 758.578125 755.785156 765.773438 C 769.253906 772.96875 782.933594 779.734375 796.832031 786.070312 C 810.726562 792.40625 824.804688 798.300781 839.070312 803.75 C 853.335938 809.199219 867.757812 814.195312 882.339844 818.738281 C 896.917969 823.28125 911.625 827.363281 926.460938 830.980469 C 941.296875 834.601562 956.234375 837.75 971.265625 840.429688 C 986.300781 843.109375 1001.40625 845.3125 1016.578125 847.042969 C 1031.75 848.773438 1046.960938 850.023438 1062.214844 850.796875 C 1178.429688 856.339844 1302.71875 835.886719 1403.335938 774.9375 C 1414.460938 768.175781 1425.222656 760.882812 1435.621094 753.050781 C 1438.496094 750.835938 1435.621094 745.867188 1432.75 748.078125 C 1339.253906 818.539062 1216.316406 845.050781 1101.105469 845.914062 C 1085.601562 845.964844 1070.113281 845.519531 1054.640625 844.574219 C 1039.164062 843.628906 1023.738281 842.1875 1008.355469 840.246094 C 992.976562 838.308594 977.671875 835.875 962.449219 832.953125 C 947.222656 830.027344 932.109375 826.617188 917.101562 822.71875 C 902.097656 818.820312 887.234375 814.445312 872.511719 809.589844 C 857.789062 804.734375 843.234375 799.410156 828.855469 793.617188 C 814.476562 787.824219 800.296875 781.574219 786.320312 774.867188 C 772.339844 768.164062 758.59375 761.015625 745.074219 753.421875 C 731.863281 746.066406 718.917969 738.265625 706.238281 730.023438 C 693.558594 721.785156 681.175781 713.117188 669.085938 704.03125 C 657 694.945312 645.238281 685.453125 633.796875 675.5625 C 622.359375 665.671875 611.269531 655.402344 600.53125 644.753906 C 589.796875 634.101562 579.433594 623.101562 569.449219 611.742188 C 559.460938 600.386719 549.875 588.703125 540.6875 576.691406 C 531.5 564.679688 522.734375 552.367188 514.386719 539.757812 C 506.042969 527.144531 498.136719 514.265625 490.671875 501.113281 C 475.789062 474.421875 462.535156 446.945312 450.910156 418.683594 C 439.28125 390.417969 429.367188 361.570312 421.160156 332.132812 C 412.769531 302.546875 406.308594 272.273438 394.617188 243.691406 C 389.507812 230.949219 383.183594 218.839844 375.644531 207.367188 C 368.109375 195.890625 359.503906 185.277344 349.835938 175.53125 C 313.617188 139.480469 266.078125 116.445312 218.542969 99.183594 C 163.335938 79.078125 105.6875 66.378906 48.09375 55.292969 C 34 52.59375 19.886719 49.988281 5.757812 47.480469 C 2.136719 46.820312 0.585938 52.277344 4.347656 52.996094 Z M 4.347656 52.996094 " fill-opacity="1" fill-rule="nonzero"/><path fill="#2c323d" d="M 4.347656 29.296875 C 62.542969 38.777344 120.824219 48.972656 177.78125 64.484375 C 228.96875 78.386719 280.871094 96.398438 324.589844 127.160156 C 335.210938 134.394531 344.996094 142.621094 353.949219 151.839844 C 362.898438 161.058594 370.835938 171.082031 377.757812 181.90625 C 393.929688 208.074219 402.199219 237.773438 410.761719 267.042969 C 418.546875 294.292969 427.953125 320.972656 438.976562 347.082031 C 449.996094 373.195312 462.558594 398.542969 476.652344 423.128906 C 535.191406 523.660156 621.824219 604.089844 723.675781 659.609375 C 736.921875 666.792969 750.363281 673.585938 764 679.988281 C 777.640625 686.390625 791.449219 692.394531 805.433594 698 C 819.421875 703.605469 833.554688 708.804688 847.839844 713.589844 C 862.125 718.378906 876.539062 722.75 891.074219 726.703125 C 905.613281 730.660156 920.253906 734.191406 934.996094 737.296875 C 949.738281 740.40625 964.558594 743.085938 979.457031 745.339844 C 994.351562 747.589844 1009.304688 749.410156 1024.304688 750.796875 C 1039.308594 752.183594 1054.335938 753.132812 1069.394531 753.652344 C 1182.421875 757.53125 1302.6875 739.664062 1402.847656 684.714844 C 1414.109375 678.550781 1425.042969 671.847656 1435.652344 664.609375 C 1438.523438 662.628906 1435.824219 657.859375 1432.777344 659.871094 C 1338.707031 724.152344 1218.585938 747.132812 1106.363281 748.539062 C 1091.054688 748.730469 1075.753906 748.46875 1060.460938 747.753906 C 1045.167969 747.042969 1029.910156 745.878906 1014.6875 744.269531 C 999.464844 742.65625 984.300781 740.597656 969.199219 738.089844 C 954.09375 735.585938 939.078125 732.636719 924.152344 729.246094 C 909.222656 725.855469 894.40625 722.03125 879.703125 717.765625 C 865 713.503906 850.433594 708.808594 836.007812 703.6875 C 821.582031 698.566406 807.316406 693.023438 793.21875 687.058594 C 779.117188 681.097656 765.207031 674.722656 751.480469 667.941406 C 646.925781 616.007812 556.160156 539.144531 493.339844 440.21875 C 478.039062 415.835938 464.382812 390.566406 452.363281 364.40625 C 440.34375 338.25 430.066406 311.425781 421.53125 283.933594 C 412.914062 256.703125 406.367188 228.785156 394.734375 202.617188 C 389.335938 190.398438 382.695312 178.898438 374.8125 168.117188 C 366.925781 157.335938 357.980469 147.523438 347.972656 138.679688 C 310.628906 105.761719 263.378906 85.566406 216.558594 70.316406 C 161.984375 52.507812 105.484375 41.160156 49.015625 31.28125 C 34.652344 28.753906 20.289062 26.367188 5.757812 24.011719 C 2.28125 23.554688 0.789062 28.753906 4.347656 29.296875 Z M 4.347656 29.296875 " fill-opacity="1" fill-rule="nonzero"/><path fill="#2c323d" d="M 4.347656 5.660156 C 61.796875 14.074219 119.242188 23.09375 175.828125 36.796875 C 226.238281 49.003906 277.511719 64.511719 321.945312 91.886719 C 342.457031 104.527344 361.472656 120.066406 375.660156 139.683594 C 392.894531 163.640625 401.886719 191.789062 410.960938 219.59375 C 419.097656 245.039062 428.910156 269.824219 440.394531 293.945312 C 451.878906 318.070312 464.933594 341.3125 479.554688 363.671875 C 541.28125 456.851562 630.527344 527.394531 730.886719 575.164062 C 757.792969 587.863281 785.292969 599.117188 813.382812 608.929688 C 841.472656 618.742188 869.996094 627.0625 898.957031 633.882812 C 927.921875 640.703125 957.160156 645.988281 986.675781 649.742188 C 1016.191406 653.492188 1045.824219 655.691406 1075.570312 656.335938 C 1186.445312 658.980469 1303.925781 643.410156 1404.167969 593.632812 C 1414.914062 588.289062 1425.445312 582.476562 1435.765625 576.199219 C 1438.636719 574.445312 1435.996094 569.90625 1433.125 571.6875 C 1387.855469 599.464844 1337.1875 617.644531 1285.683594 629.96875 C 1228.589844 643.371094 1170.71875 650.445312 1112.078125 651.195312 C 1081.894531 651.789062 1051.765625 650.78125 1021.6875 648.175781 C 991.613281 645.570312 961.757812 641.378906 932.125 635.601562 C 902.496094 629.824219 873.253906 622.496094 844.398438 613.613281 C 815.546875 604.730469 787.246094 594.347656 759.496094 582.460938 C 656.378906 537.707031 562.59375 470.636719 496.445312 378.921875 C 480.585938 356.785156 466.386719 333.632812 453.839844 309.460938 C 441.296875 285.292969 430.535156 260.351562 421.5625 234.644531 C 412.683594 209.394531 405.878906 183.285156 393.726562 159.332031 C 387.976562 148.152344 381.074219 137.738281 373.015625 128.089844 C 364.953125 118.441406 355.9375 109.789062 345.960938 102.140625 C 307.957031 72.640625 261.28125 55.148438 215.496094 41.90625 C 160.578125 25.910156 104.050781 15.769531 47.578125 6.921875 C 33.617188 4.738281 19.660156 2.625 5.699219 0.574219 C 2.394531 0.113281 0.960938 5.171875 4.347656 5.660156 Z M 4.347656 5.660156 " fill-opacity="1" fill-rule="nonzero"/><g clip-path="url(#823a866a54)"><path fill="#2c323d" d="M 1075.085938 810.03125 L 1068.902344 802.199219 L 1447.660156 321.964844 L 1453.839844 329.796875 L 1075.085938 810.03125 " fill-opacity="1" fill-rule="nonzero"/></g><g clip-path="url(#e91cb75215)"><path fill="#2c323d" d="M 1139.546875 810.03125 L 1133.371094 802.199219 L 1512.125 321.964844 L 1518.304688 329.796875 L 1139.546875 810.03125 " fill-opacity="1" fill-rule="nonzero"/></g><g clip-path="url(#88eca85c42)"><path fill="#2c323d" d="M 1204.015625 810.03125 L 1197.835938 802.199219 L 1576.589844 321.964844 L 1582.773438 329.796875 L 1204.015625 810.03125 " fill-opacity="1" fill-rule="nonzero"/></g><g clip-path="url(#129097ec89)"><path fill="#2c323d" d="M 1268.480469 810.03125 L 1262.300781 802.199219 L 1641.054688 321.964844 L 1647.234375 329.796875 L 1268.480469 810.03125 " fill-opacity="1" fill-rule="nonzero"/></g><g clip-path="url(#775e1cece5)"><path fill="#2c323d" d="M 1332.945312 810.03125 L 1326.765625 802.199219 L 1705.523438 321.964844 L 1711.699219 329.796875 L 1332.945312 810.03125 " fill-opacity="1" fill-rule="nonzero"/></g><g clip-path="url(#edd6b9a23e)"><path fill="#2c323d" d="M 1397.410156 810.03125 L 1391.230469 802.199219 L 1769.984375 321.964844 L 1776.167969 329.796875 L 1397.410156 810.03125 " fill-opacity="1" fill-rule="nonzero"/></g></svg>