<svg xmlns="http://www.w3.org/2000/svg" xmlns:xlink="http://www.w3.org/1999/xlink" width="500" zoomAndPan="magnify" viewBox="0 0 375 374.999991" height="500" preserveAspectRatio="xMidYMid meet" version="1.0"><defs><g/><clipPath id="ea90be042d"><path d="M 97.808594 40.496094 L 277.457031 40.496094 L 277.457031 197.460938 L 97.808594 197.460938 Z M 97.808594 40.496094 " clip-rule="nonzero"/></clipPath><clipPath id="07d03cd80f"><path d="M 187.5 197.460938 L 277.191406 40.496094 L 97.808594 40.496094 Z M 187.5 197.460938 " clip-rule="nonzero"/></clipPath></defs><rect x="-37.5" width="450" fill="#ffffff" y="-37.499999" height="449.999989" fill-opacity="1"/><rect x="-37.5" width="450" fill="#2a2a2a" y="-37.499999" height="449.999989" fill-opacity="1"/><g fill="#ffffff" fill-opacity="1"><g transform="translate(65.297359, 328.181408)"><g><path d="M 29.390625 -230.1875 L 42.609375 -230.1875 L 122.859375 -88.171875 L 202.78125 -230.1875 L 215 -230.1875 L 215 -0.328125 L 29.390625 -0.328125 Z M 41.609375 -12.21875 L 202.78125 -12.21875 L 202.78125 -205.421875 L 128.46875 -74.640625 L 116.90625 -74.640625 L 41.609375 -207.390625 Z M 41.609375 -12.21875 "/></g></g></g><g clip-path="url(#ea90be042d)"><g clip-path="url(#07d03cd80f)"><path fill="#ffffff" d="M 97.808594 40.496094 L 277.457031 40.496094 L 277.457031 197.460938 L 97.808594 197.460938 Z M 97.808594 40.496094 " fill-opacity="1" fill-rule="nonzero"/></g></g></svg>